<?xml version="1.0" encoding="UTF-8"?>
<!DOCTYPE svg PUBLIC "-//W3C//DTD SVG 1.1//EN" "http://www.w3.org/Graphics/SVG/1.1/DTD/svg11.dtd">
<svg xmlns="http://www.w3.org/2000/svg" xmlns:xlink="http://www.w3.org/1999/xlink" version="1.1" width="92px" height="77px" viewBox="-0.5 -0.5 92 77"><defs/><g><g><path d="M 44.72 0.04 C 44.03 0.09 43.33 0.26 42.73 0.56 L 15.51 13.54 C 14.08 14.24 13.04 15.54 12.69 17.06 L 5.96 46.27 C 5.66 47.61 5.92 49.05 6.66 50.22 C 6.79 50.35 6.87 50.48 6.96 50.65 L 25.8 74.05 C 26.8 75.26 28.32 76 29.88 76 L 60.09 76 C 61.65 76 63.17 75.26 64.17 74.05 L 83 50.61 C 83.96 49.39 84.35 47.79 84 46.27 L 77.28 17.06 C 76.93 15.54 75.89 14.24 74.45 13.54 L 47.24 0.56 C 46.46 0.17 45.59 0 44.72 0.04 Z" fill="#ffffff" stroke="none" pointer-events="all"/><path d="M 44.74 2.32 C 44.09 2.36 43.43 2.52 42.86 2.81 L 17.28 15.01 C 15.94 15.66 14.96 16.89 14.63 18.31 L 8.31 45.77 C 8.02 47.04 8.27 48.38 8.96 49.49 C 9.08 49.61 9.16 49.73 9.24 49.89 L 26.95 71.88 C 27.89 73.03 29.32 73.72 30.79 73.72 L 59.18 73.72 C 60.65 73.72 62.08 73.03 63.02 71.88 L 80.72 49.85 C 81.62 48.71 81.99 47.2 81.66 45.77 L 75.34 18.31 C 75.01 16.89 74.03 15.66 72.69 15.01 L 47.11 2.81 C 46.37 2.44 45.56 2.28 44.74 2.32 Z" fill="#2875e2" stroke="none" pointer-events="all"/><path d="M 45.01 15.2 C 44.55 15.2 30.93 21.9 30.76 22.22 C 30.33 23.06 27.23 37.31 27.41 37.63 C 27.51 37.81 29.73 40.63 32.38 43.91 L 37.14 49.87 L 44.97 49.87 L 52.8 49.87 L 57.77 43.66 L 62.78 37.42 L 61.02 29.77 C 60.06 25.57 59.22 22.04 59.11 21.97 C 58.86 21.72 45.29 15.24 45.01 15.2 Z M 45.85 22.22 C 46.52 22.25 46.59 23.24 48 23.35 C 49.84 23.49 49.62 21.76 51.04 22.96 C 52.45 24.16 50.72 24.23 51.18 26.03 C 51.6 27.83 53.15 27.12 52.48 28.81 C 51.78 30.51 51.14 28.92 49.59 29.87 C 48 30.86 49.17 32.13 47.33 31.99 C 45.5 31.85 46.84 30.75 45.43 29.55 C 44.02 28.39 43.17 29.87 42.75 28.07 C 42.29 26.31 43.74 27.23 44.44 25.53 C 45.15 23.81 43.45 23.49 45.04 22.5 C 45.22 22.39 45.39 22.32 45.53 22.25 C 45.64 22.22 45.75 22.22 45.85 22.22 Z M 47.69 24.23 C 47.44 24.23 47.16 24.26 46.91 24.33 C 45.5 24.76 44.69 26.24 45.11 27.65 C 45.53 29.06 47.05 29.87 48.46 29.45 C 49.87 29.02 50.65 27.54 50.22 26.13 C 49.91 25 48.85 24.23 47.69 24.23 Z M 37.14 28.81 C 37.28 28.81 37.46 28.85 37.67 28.92 C 39.36 29.45 37.63 30.33 38.83 31.63 C 40.03 32.9 41.06 31.25 41.44 32.97 C 41.87 34.7 40.21 33.68 39.71 35.37 C 39.19 37.07 41.13 37.1 39.82 38.3 C 38.52 39.5 38.62 37.59 36.89 37.98 C 35.17 38.37 36.08 40.06 34.39 39.57 C 32.7 39.04 34.42 38.16 33.23 36.85 C 32.03 35.55 31 37.21 30.62 35.48 C 30.19 33.75 31.85 34.81 32.34 33.12 C 32.87 31.42 30.93 31.35 32.24 30.15 C 33.54 28.95 33.44 30.89 35.17 30.51 C 36.68 30.15 36.15 28.81 37.14 28.81 Z M 49.73 30.68 C 49.87 30.68 50.08 30.72 50.33 30.79 C 52.27 31.56 49.7 32.73 51.21 34.17 C 52.73 35.62 53.79 33.01 54.63 34.91 C 55.48 36.82 52.83 35.83 52.87 37.95 C 52.9 40.03 55.51 38.93 54.77 40.87 C 54 42.81 52.83 40.24 51.39 41.76 C 49.94 43.27 52.55 44.33 50.65 45.18 C 48.74 46.02 49.73 43.38 47.61 43.41 C 45.53 43.48 46.63 46.06 44.69 45.32 C 42.75 44.54 45.32 43.38 43.81 41.93 C 42.29 40.49 41.23 43.1 40.39 41.19 C 39.54 39.29 42.18 40.27 42.15 38.19 C 42.08 36.08 39.5 37.21 40.24 35.23 C 41.02 33.29 42.18 35.87 43.63 34.35 C 45.08 32.83 42.47 31.78 44.37 30.93 C 46.27 30.08 45.29 32.73 47.37 32.69 C 49.2 32.66 48.6 30.65 49.73 30.68 Z M 36.05 31.56 C 34.57 31.56 33.37 32.76 33.37 34.24 C 33.37 35.73 34.57 36.89 36.05 36.89 C 37.49 36.89 38.69 35.73 38.69 34.24 C 38.69 32.76 37.49 31.56 36.05 31.56 Z M 47.51 34.14 C 45.32 34.14 43.56 35.87 43.56 38.05 C 43.56 40.24 45.32 42 47.51 42 C 49.7 42 51.42 40.24 51.42 38.05 C 51.42 35.87 49.66 34.14 47.51 34.14 Z M 50.33 52.69 L 50.33 51.7 L 51.21 51.7 L 51.21 52.69 Z M 50.33 58.83 L 50.33 53.68 L 51.21 53.68 L 51.21 58.83 Z M 44.79 60.8 L 44.79 53.68 L 45.6 53.68 L 45.6 54.35 Q 45.89 53.92 46.24 53.75 Q 46.59 53.54 47.09 53.54 Q 47.76 53.54 48.25 53.89 Q 48.74 54.24 49.03 54.84 Q 49.27 55.47 49.27 56.22 Q 49.27 56.99 48.99 57.63 Q 48.71 58.26 48.14 58.61 Q 47.61 58.93 47.02 58.93 Q 46.59 58.93 46.24 58.75 Q 45.89 58.58 45.68 58.3 L 45.68 60.8 Z M 45.57 56.29 Q 45.57 57.27 45.99 57.73 Q 46.38 58.23 46.98 58.23 Q 47.54 58.23 47.97 57.73 Q 48.39 57.24 48.39 56.22 Q 48.39 55.23 47.97 54.73 Q 47.58 54.24 47.02 54.24 Q 46.45 54.24 46.03 54.77 Q 45.57 55.26 45.57 56.29 Z M 42.61 58.19 Q 42.15 58.61 41.69 58.75 Q 41.23 58.93 40.74 58.93 Q 39.86 58.93 39.4 58.54 Q 38.94 58.12 38.94 57.45 Q 38.94 57.1 39.12 56.78 Q 39.29 56.46 39.57 56.25 Q 39.86 56.07 40.21 55.97 Q 40.46 55.9 40.98 55.86 Q 42.04 55.72 42.54 55.55 Q 42.54 55.37 42.54 55.33 Q 42.54 54.77 42.29 54.56 Q 41.97 54.28 41.3 54.28 Q 40.7 54.28 40.39 54.49 Q 40.1 54.7 39.96 55.26 L 39.12 55.12 Q 39.22 54.59 39.5 54.24 Q 39.75 53.92 40.28 53.71 Q 40.77 53.54 41.44 53.54 Q 42.11 53.54 42.5 53.71 Q 42.92 53.85 43.1 54.1 Q 43.31 54.31 43.38 54.7 Q 43.42 54.91 43.42 55.51 L 43.42 56.67 Q 43.42 57.87 43.49 58.19 Q 43.56 58.54 43.7 58.83 L 42.78 58.83 Q 42.64 58.54 42.61 58.19 Z M 42.54 56.22 Q 42.08 56.43 41.13 56.57 Q 40.6 56.64 40.35 56.74 Q 40.14 56.85 40 57.03 Q 39.89 57.2 39.89 57.45 Q 39.89 57.8 40.14 58.01 Q 40.42 58.26 40.91 58.26 Q 41.44 58.26 41.83 58.05 Q 42.22 57.8 42.4 57.41 Q 42.54 57.13 42.54 56.57 Z" fill="#ffffff" stroke="none" pointer-events="all"/></g></g></svg>